ffmpeg started on 2016-12-08 at 09:55:39
Report written to "Output/x264/results/ffmpeg/Tsintelveryslow500k.log"
Command line:
Tools/ffmpeg/ffmpeg -i Output/x264/encoded/sintelveryslow500k.mkv -c:v rawvideo -pix_fmt yuv420p Output/x264/transcoded/sintelveryslow500k.yuv
ffmpeg version N-82227-gdb23fde Copyright (c) 2000-2016 the FFmpeg developers
  built with gcc 5.4.0 (Ubuntu 5.4.0-6ubuntu1~16.04.2) 20160609
  configuration: --prefix=/home/jaroslav/ffmpeg_build --pkg-config-flags=--static --extra-cflags=-I/home/jaroslav/ffmpeg_build/include --extra-ldflags=-L/home/jaroslav/ffmpeg_build/lib --bindir=/home/jaroslav/bin --enable-gpl --enable-libass --enable-libfdk-aac --enable-libfreetype --enable-libmp3lame --enable-libopus --enable-libtheora --enable-libvorbis --enable-libvpx --enable-libx264 --enable-libx265 --enable-nvenc --enable-libmfx --enable-libxvid --enable-libgsm --enable-libopencore-amrnb --enable-version3 --enable-nonfree
  libavutil      55. 35.100 / 55. 35.100
  libavcodec     57. 66.101 / 57. 66.101
  libavformat    57. 57.100 / 57. 57.100
  libavdevice    57.  2.100 / 57.  2.100
  libavfilter     6. 66.100 /  6. 66.100
  libswscale      4.  3.100 /  4.  3.100
  libswresample   2.  4.100 /  2.  4.100
  libpostproc    54.  2.100 / 54.  2.100
Input #0, matroska,webm, from 'Output/x264/encoded/sintelveryslow500k.mkv':
  Metadata:
    ENCODER         : Lavf57.57.100
  Duration: 00:00:20.83, start: 0.000000, bitrate: 905 kb/s
    Stream #0:0: Video: h264 (High), yuv420p(progressive), 4096x1744 [SAR 1:1 DAR 256:109], 24 fps, 24 tbr, 1k tbn, 48 tbc (default)
    Metadata:
      ENCODER         : Lavc57.66.101 libx264
      DURATION        : 00:00:20.834000000
Output #0, rawvideo, to 'Output/x264/transcoded/sintelveryslow500k.yuv':
  Metadata:
    encoder         : Lavf57.57.100
    Stream #0:0: Video: rawvideo (I420 / 0x30323449), yuv420p, 4096x1744 [SAR 1:1 DAR 256:109], q=2-31, 200 kb/s, 24 fps, 24 tbn, 24 tbc (default)
    Metadata:
      DURATION        : 00:00:20.834000000
      encoder         : Lavc57.66.101 rawvideo
Stream mapping:
  Stream #0:0 -> #0:0 (h264 (native) -> rawvideo (native))
Press [q] to stop, [?] for help
frame=   20 fps=0.0 q=-0.0 size=  209280kB time=00:00:00.83 bitrate=2057306.9kbits/s speed=1.59x    frame=   41 fps= 39 q=-0.0 size=  429024kB time=00:00:01.70 bitrate=2057306.5kbits/s speed=1.64x    frame=   62 fps= 40 q=-0.0 size=  648768kB time=00:00:02.58 bitrate=2057306.4kbits/s speed=1.65x    frame=   83 fps= 40 q=-0.0 size=  868512kB time=00:00:03.45 bitrate=2057306.3kbits/s speed=1.66x    frame=  104 fps= 40 q=-0.0 size= 1088256kB time=00:00:04.33 bitrate=2057306.3kbits/s speed=1.66x    frame=  125 fps= 40 q=-0.0 size= 1308000kB time=00:00:05.20 bitrate=2057306.2kbits/s speed=1.66x    frame=  146 fps= 40 q=-0.0 size= 1527744kB time=00:00:06.08 bitrate=2057306.2kbits/s speed=1.67x    frame=  167 fps= 40 q=-0.0 size= 1747488kB time=00:00:06.95 bitrate=2057306.2kbits/s speed=1.67x    frame=  187 fps= 40 q=-0.0 size= 1956768kB time=00:00:07.79 bitrate=2057306.0kbits/s speed=1.67x    frame=  207 fps= 40 q=-0.0 size= 2166048kB time=00:00:08.62 bitrate=2057306.1kbits/s speed=1.67x    frame=  227 fps= 40 q=-0.0 size= 2375328kB time=00:00:09.45 bitrate=2057306.2kbits/s speed=1.66x    frame=  247 fps= 40 q=-0.0 size= 2584608kB time=00:00:10.29 bitrate=2057306.0kbits/s speed=1.66x    frame=  267 fps= 40 q=-0.0 size= 2793888kB time=00:00:11.12 bitrate=2057306.1kbits/s speed=1.66x    frame=  287 fps= 40 q=-0.0 size= 3003168kB time=00:00:11.95 bitrate=2057306.2kbits/s speed=1.66x    frame=  305 fps= 40 q=-0.0 size= 3191520kB time=00:00:12.70 bitrate=2057306.2kbits/s speed=1.65x    frame=  321 fps= 39 q=-0.0 size= 3358944kB time=00:00:13.37 bitrate=2057306.1kbits/s speed=1.63x    frame=  337 fps= 39 q=-0.0 size= 3526368kB time=00:00:14.04 bitrate=2057306.1kbits/s speed=1.61x    frame=  352 fps= 38 q=-0.0 size= 3683328kB time=00:00:14.66 bitrate=2057306.1kbits/s speed=1.59x    frame=  362 fps= 37 q=-0.0 size= 3787968kB time=00:00:15.08 bitrate=2057306.2kbits/s speed=1.55x    frame=  377 fps= 37 q=-0.0 size= 3944928kB time=00:00:15.70 bitrate=2057306.2kbits/s speed=1.53x    frame=  389 fps= 36 q=-0.0 size= 4070496kB time=00:00:16.20 bitrate=2057306.2kbits/s speed= 1.5x    frame=  405 fps= 36 q=-0.0 size= 4237920kB time=00:00:16.87 bitrate=2057306.1kbits/s speed= 1.5x    frame=  420 fps= 36 q=-0.0 size= 4394880kB time=00:00:17.50 bitrate=2057306.1kbits/s speed=1.48x    frame=  436 fps= 35 q=-0.0 size= 4562304kB time=00:00:18.16 bitrate=2057306.1kbits/s speed=1.48x    frame=  451 fps= 35 q=-0.0 size= 4719264kB time=00:00:18.79 bitrate=2057306.1kbits/s speed=1.46x    frame=  467 fps= 35 q=-0.0 size= 4886688kB time=00:00:19.45 bitrate=2057306.1kbits/s speed=1.45x    frame=  483 fps= 35 q=-0.0 size= 5054112kB time=00:00:20.12 bitrate=2057306.1kbits/s speed=1.45x    frame=  497 fps= 34 q=-0.0 size= 5200608kB time=00:00:20.70 bitrate=2057306.1kbits/s speed=1.44x    frame=  500 fps= 34 q=-0.0 Lsize= 5232000kB time=00:00:20.83 bitrate=2057306.1kbits/s speed=1.44x    
video:5232000kB audio:0kB subtitle:0kB other streams:0kB global headers:0kB muxing overhead: 0.000000%
